<svg xmlns="http://www.w3.org/2000/svg" height="147.32" width="377.947"><path d="M295.767 116.315c.086 3.727.757 6.889 2.396 9.03 2.386 3.14 6.52 4.71 12.438 4.694 6.54-.012 9.026-.72 9.843-1.048l4.023-12.676zm43.632 26.738l-1.362.557c-5.298 2.091-20.906 3.71-30.85 3.71-9.306 0-21.764-3.483-28.972-13.173-2.799-3.766-5.447-9.586-5.482-17.832h-9.444l-7.234 28.977h-24.526l8.634-28.977h-7.803l-18.72 28.977h-19.719l-1.753-28.977h-8.697l-8.582 28.977h-20.994l8.894-28.977h-49.444v-.47l-8.816 29.502H82.147l8.766-29.032H63.586l13.591 29.032H51.315L39.59 116.315h-7.004c-4.382 14.278-7.83 25.773-8.084 26.689l-.464 2.343H0l22.009-73.243V.004h82.507v71.239l3.139-10.477h5.69V.004h82.31v60.762h8.837V.004h82.303v76.81c2.8-3.805 5.774-6.825 8.862-9.201V.004h82.295v116.31h-31.053l-7.5 26.74" fill="#1e4794"/><path d="M324.564 62.053c-15.841 0-35.448 3.51-46.741 40.68-9.454 31.066 13.517 41.644 29.364 41.644 10.478 0 25.324-1.765 29.77-3.516l11.14-39.74H314.74L311.045 113h17.564l-5.465 17.233s.7 2.735-12.524 2.763c-16.696.082-21.307-11.593-15.827-30.7 5.102-17.746 13.224-29.605 28.223-28.896 10.17.49 15.936 4.262 13.124 13.636-.175.635-.272 1.42-.524 1.963l16.188.032c4.11-12.048-4.099-26.98-27.24-26.98zm-51.24 1.658h-25.819c-31.433 43.579-39.032 68.027-39.032 68.027 3.008-27.664-.908-68.027-.908-68.027h-25.58l-24.089 78.638h14.803l19.928-67.368 4.074 67.368h15.311l43.505-67.368-19.998 67.368h18.201zm-110.207 23.75c4.486-24.25-15.064-23.947-33.206-23.75h-20.065l-23.73 78.693h16.195l9.287-31.104h12.963c25.122.033 36.22-11.139 38.556-23.838zm-71.42-23.75H70.022L35.56 98.461l-.012-.066.005.066-.005.022h.005v-.022h.007l17.745 43.943h19.208l-19.797-42.265zm-46.293 0H27.581l-23.61 78.693h17.646c.34-1.64 23.787-78.693 23.787-78.693zm101.428 23.75c-2.663 8.013-6.28 12.1-18.118 12.329-3.924.065-8.207-.022-14.047-.022l7.213-24.745c17.757-.02 29.568-1.459 24.952 12.439" fill="#fff"/></svg>